<svg viewBox="0 0 511.99619 511" xmlns="http://www.w3.org/2000/svg"><path d="m504.792969 132.21875-6.59375-14.191406-14.492188 6.597656c-16.117187 7.820312-28.667969 21.179688-36.855469 37.199219-8.480468-19.476563-19.234374-38.035157-30.910156-55.113281 25.222656-27.183594 25.136719-68.457032.605469-95.117188l-10.191406-11.09375-11.09375 10.492188c-12.085938 11.460937-19.675781 25.742187-23.058594 40.792968-21.105469-23.082031-38.070313-37.859375-39.9375-39.457031l-19.5 22.75c.425781.375 16.375 14.238281 36.542969 36.226563-15.546875 1.9375-30.476563 8.933593-42.792969 20.339843l-10.492187 10.195313 9.894531 10.792968c12.292969 13.492188 29.980469 20.386719 48.867187 20.386719 16.164063 0 28.3125-4.472656 36.835938-8.757812 9.285156 13.578125 17.84375 28.0625 24.917968 43.078125-13.777343-1.570313-27.867187.839844-41.367187 7.054687l-14.390625 6.59375 7.195312 14.09375c12.472657 22.945313 39.722657 33.6875 66.144532 35.25.046875.828125.238281 1.65625.269531 2.484375.648437 16.863282-2.589844 32.238282-9.117187 46.578125-7.179688-14.863281-20.453126-26.515625-40.203126-34.246093l-11.992187-4.792969-6.597656 10.792969c-8.183594 14.183593.617187 51.121093 19.519531 76.757812-13.6875 12.167969-25.972656 21.007812-37.527344 28.300781 2.554688-16.570312-.761718-33.882812-10.175781-48.996093l-7.496094-12.289063-12.589843 7.195313c-25.183594 14.292968-39.59375 53.171874-29.0625 86.800781-10.699219 6.289062-21.597657 13.859375-33.148438 24.03125-11.609375-10.226563-22.558594-17.8125-33.308594-24.121094 10.597656-35.414063-4.480468-72.847656-28.90625-86.710937l-12.59375-7.199219-7.492187 12.292969c-9.414063 15.113281-12.734375 32.421874-10.175781 48.992187-11.554688-7.292969-23.84375-16.128906-37.527344-28.296875 18.898437-25.640625 27.703125-62.578125 19.519531-76.761719l-6.597656-10.792969-11.992188 4.796876c-21.667969 8.480468-34.265625 21.5625-40.203125 34.242187-6.527344-14.339844-9.765625-29.710937-9.117187-46.578125.03125-.824219.222656-1.652344.269531-2.472656 26.722656-1.566406 53.785156-12.523438 66.140625-35.257813l7.195313-14.09375-14.390626-6.59375c-13.742187-6.328125-27.9375-8.890625-41.132812-7.566406 7.03125-14.835937 15.507812-29.144531 24.6875-42.566406 8.519531 4.285156 20.671875 8.757812 36.832031 8.757812 18.890625 0 36.578125-6.894531 48.871094-20.390625l9.894531-10.792968-10.492187-10.195313c-11.945313-11.058594-26.726563-18.195313-43.027344-20.082031 20.28125-22.144532 36.347656-36.105469 36.777344-36.480469l-19.5-22.75c-1.871094 1.59375-18.832031 16.371094-39.9375 39.457031-3.386719-15.054687-10.972657-29.332031-23.058594-40.792968l-11.09375-10.492188-10.195313 11.089844c-24.386718 26.507812-24.738281 67.824218.609376 95.117187-11.675782 17.078125-22.429688 35.640625-30.910157 55.117188-8.1875-16.023438-21.738281-29.382813-37.855469-37.199219l-13.492187-6.597656-6.59375 13.191406c-18.761719 37.519531.617187 84.734375 40.882813 96.15625-.097657 1.4375-.390626 2.859375-.449219 4.296875-.753907 19.765625 2.496093 38.335937 9.570312 55.625-13.867187-2.179687-28.851562-1.921875-42.210937 3.421875l-14.691406 5.996094 6.894531 14.390625c21.304687 47.089843 66.558593 55.757812 96.804687 37.3125 16.1875 14.703125 30.367188 25.160156 43.285156 33.3125-12.734374 6.84375-24.105468 16.757812-32.355468 30.113281l-8.09375 13.492188 13.792968 7.496093c31.9375 17.652344 66.535157 8.90625 88.101563-17.359375 8.390625 5.070313 16.902344 11.148438 25.773437 18.777344-13.417968 14.980469-28.011718 36.152344-44.507812 61.652344l25.179688 16.28125c15.191406-23.488282 28.53125-43 40.820312-56.746094 12.289062 13.746094 25.628906 33.257812 40.816406 56.746094l25.179688-16.28125c-16.492188-25.5-31.085938-46.667969-44.507813-61.648438 8.933594-7.679687 17.5-13.792968 25.941407-18.886718 21.773437 27.023437 56.890624 34.625 87.9375 17.464843l13.792968-7.496093-8.09375-13.492188c-8.25-13.355469-19.617187-23.269531-32.351562-30.113281 12.914062-8.152344 27.09375-18.609375 43.28125-33.3125 30.246094 18.445312 75.5 10.777343 96.804687-36.3125l6.894531-14.390625-14.691406-6.996094c-14.226562-5.6875-29.6875-5.550781-42.121094-3.585938 7.023438-17.238281 10.230469-35.757812 9.476563-55.460937-.054687-1.4375-.347656-2.863281-.445313-4.296875 40.261719-11.417969 59.640626-57.636719 40.878907-95.15625zm0 0"/></svg>