<svg version="1" xmlns="http://www.w3.org/2000/svg" width="682.667" height="682.667" viewBox="0 0 512.000000 512.000000"><path d="M238 .7c-25.4 2.7-43.5 6.2-61.4 12C137 25.4 103.3 46.5 73 77.6 31.2 120.4 8.5 169 1.6 230.2c-4 35.1.6 74.8 12.7 110.4 12.2 35.7 32 67.4 59.5 95.2 41 41.5 91.5 66.5 150.2 74.4 13.8 1.9 54.6 1.5 68.3-.5 58.3-8.8 107.4-33.8 147.2-74.9 24.2-24.9 41.6-51.4 53.8-81.8 11.8-29.5 17.1-54.7 18.3-87.5 1.7-43.5-7-84.6-25.7-122.5C451.2 72.9 387 22.5 311.2 6 290.5 1.5 254.9-1.1 238 .7zm57 7.8c24.8 4 47.4 11.2 71.5 23 26.4 12.9 47.2 27.9 68.2 49.2 38.2 38.7 61.3 85.7 70 142.3 2.3 15.3 2.3 50.8 0 66.3-8.8 58.1-33.6 107.3-73.8 146.2-39.1 37.9-87.1 61.4-141.6 69.1-14.7 2-43.4 2.4-45.6.5-1.2-.9-1.7-1-1.7-.2s-1.5 1.1-4.2.9c-3.5-.2-4.2-.6-4-2.1.2-.9-.2-1.7-.8-1.7-.5 0-1 .8-1 1.8 0 1.7-.6 1.8-7.2 1-42.8-5.1-89.9-25-125.1-53-34.4-27.4-60.9-63.6-77.4-105.7-3.5-8.8-4.3-12.2-3.9-15 .3-2.3.3-2.9-.3-1.7-.4 1.1-1 1.5-1.3 1-1-1.6-5.8-21.7-7.9-33C6 281.5 5.2 243.2 7.4 226 18.6 141.2 69.2 69.4 144.7 31.7c21.5-10.8 53.5-20.5 80-24.2 13.6-1.9 55.9-1.4 70.3 1z"/><path d="M196.2 17c0 1.4.2 1.9.5 1.2.2-.6.2-1.8 0-2.5-.3-.6-.5-.1-.5 1.3zM231.6 19.5c-17.8 2.5-44.5 8.7-56.1 13.1-1.8.7-1.8.6-.6-.9 1-1.3 1-1.7.1-1.7-.6 0-1.4.8-1.7 1.9-.3 1.2-2.9 2.9-7.1 4.7-32 13.3-63 34.8-84.4 58.4-35.7 39.3-58.5 91.6-63.3 145.5-3.4 38.3 7.2 86.3 27.6 125.5 16.6 31.7 39.8 59.7 65.4 78.6 39.1 28.9 83.5 45.5 132 49.3 24.8 1.9 56.9-2.5 84.2-11.5 5.8-1.9 11.1-3.3 11.8-3 .7.2 1.6-.1 1.8-.8.3-.7 4.6-3 9.7-5.1 17.6-7.4 42.6-22.6 57.5-35 4.4-3.7 8.4-7 9-7.3.5-.4 5-5 9.9-10.2 28.5-30.3 50.6-71.2 60.1-111.5 9.1-38.4 8.9-70.6-.5-108.6-11.8-47.2-39.4-93.3-73.1-122.3-35.6-30.6-79.4-50.8-126.4-58.1-14.5-2.3-42.5-2.8-55.9-1zM288.9 64c66.7 11.5 123.3 57.2 148 119.6 29.1 73.5 11.5 157.1-44.5 211.4-12 11.6-18.6 16.9-31.4 25.2-25.1 16.3-53.4 26.3-85 29.9-12.9 1.5-40 .7-52.5-1.5-53.5-9.5-100.1-39.7-129.6-83.9C62.9 318 53.5 262.9 67 207.5 82.4 144.8 132.5 91.3 194.9 71c13.5-4.4 28.5-7.6 41.6-8.9 13.6-1.4 38.1-.5 52.4 1.9z"/><path d="M248 73.7c-1.9.2-3.8.8-4.3 1.2-1 1 2.9 4.4 5.3 4.6 1 .1 2.7.9 3.7 1.7 1 .9 2.3 1.8 2.8 1.9 4.6 1 11.5 10.8 14.6 20.7 1.8 5.7 2.9 21.9 1.6 24-.9 1.3-1.2 1.2 8.5 3.7 3.7.9 7.2 1.4 7.7 1 .6-.3 3 .2 5.3 1.2 2.4 1.1 6.3 2.5 8.8 3.3 8 2.5 27.7 16.8 26.7 19.4-.3.6 1.5 3.6 3.9 6.6 6.7 8.4 8.8 11.9 12.4 20 3.7 8.4 4.7 10 6.3 9.7.7-.1 1.3 1.3 1.5 3.3.2 1.9 1.2 6.6 2.3 10.5 3.8 13.5 3.3 33.1-1.2 44-.7 1.7-1.1 3.4-1 3.8.2 1.1-4.2 10.1-5.2 10.5-.4.2-.5.8-.1 1.3.3.5.1.9-.4.9s-2.1 2.3-3.6 5c-1.5 2.8-3.2 5-3.7 5-.6 0-.8.4-.4 1 .3.5 1.3.7 2.3.4 1.5-.5 1.4-.3-.2 1-1.6 1.3-2.3 1.3-5.3.1-2.1-.9-3.1-1-2.7-.3.5.8.3.8-.7.2-.8-.5-3-.9-4.9-.9-2.9 0-3.5-.3-3.2-2 .2-1.2 0-1.6-.5-.9-.4.6-1.6 1.3-2.5 1.7-1 .3-1.8 1.6-1.8 2.7s-.7 2-1.5 2c-1.8 0-2-1.7-.3-2.2.9-.3.9-.6.1-1.1-.7-.5-2.2.7-3.6 2.7-1.8 2.7-2.6 3.3-3.5 2.4-1.2-1.2-1.4-.4-1.5 5.9 0 1.3-.6 2.3-1.3 2.3-1.2 0-1.2.4-.2 1.9.7 1.1 1.7 1.7 2.3 1.3.5-.3.4.1-.3 1-1.1 1.3-.7 2.1 2.1 5.2 1.9 2 4.2 3.6 5.1 3.6 1 0 1.4.5 1 1.1-.5.8.9 1 4.7.7 6.1-.6 10.9-2.2 10.9-3.8 0-.6.5-.8 1-.5.6.3 1.3-.1 1.6-.9.3-.9 1.2-1.6 1.9-1.6 1 0 1.2-1 .8-3.7-.4-2-.2-3.4.3-3.1.5.4.9-1.1.8-3.3 0-2.1.4-3.9 1-3.9.9 0 9.6-8.8 9.6-9.7 0-.3 1.1-1.9 2.4-3.6 1.4-1.8 3.5-5.9 4.7-9.2 1.3-3.3 2.6-6.2 2.9-6.5.3-.3.6-1.9.6-3.5 0-1.7.8-6.9 1.7-11.7.9-4.9 1.4-10 1.1-11.5-.2-1.6-.6-5.3-.9-8.3-.3-5.1-1.4-10.9-4.6-23.5-2-8.4-9.9-26.1-14.9-33.8-2.7-3.9-7.6-9.9-10.9-13.2-3.4-3.3-6.1-6.5-6.1-7.1 0-1.5-3.9-4.9-4.7-4.1-.3.4-2-.7-3.6-2.5-3-3.1-3-3.2-.9-3.9 1.4-.5 3.4-.2 5.9 1 2.1 1 5.6 2.6 7.8 3.6 2.2.9 5.3 2.3 6.8 3.1 1.6.8 3.5 1.4 4.4 1.4 5.1 0 26.2 20.5 32.8 31.8 2.5 4.2 4.5 8.4 4.5 9.3 0 .9.8 2.7 1.8 4 1.8 2.4 4.4 8.1 4.4 9.6 0 .4.5 1.7 1.1 2.8.6 1.1 1 2.3.9 2.6 0 .4.3 2.2.9 4 1.1 3.7 1.4 46.7.3 50.1-.6 2-.3 2 5.7 1.5 8.8-.9 17.7-4.1 21.6-7.9 2.5-2.4 3.5-2.9 4.6-2 .8.7 1.6 1 1.9.7.3-.3 1.1.1 1.8 1 1.6 1.9.5 4.9-1.5 4.1-.8-.3-1.5-.1-1.5.5s-.5.7-1.2.3c-.7-.4-.8-.3-.4.5.4.6 1.3.8 1.9.5.7-.4-.1.8-1.8 2.6-4.2 4.6-15.9 13.2-22.5 16.5-8.5 4.2-19 10.6-19 11.5 0 1-14 17.9-16.5 20-1 .8-2.5 2.7-3.4 4.1-2.6 4.1-21.1 19.3-21.1 17.3 0-.4-.8 0-1.7.8-2 1.8-13.3 6.1-14 5.4-.3-.2-2.3.2-4.5 1-2.5.9-9.1 1.5-17.6 1.6l-13.7.3-6.8-3.5c-4.1-2.1-6.6-3.9-6.3-4.7.3-.7-.5-2.5-1.8-4-1.2-1.6-2.8-4.4-3.6-6.3-.7-1.9-1.7-4-2.3-4.7-.5-.7-1.1-3.4-1.4-6.1-.3-3.7.1-5.8 1.6-8.5 1.1-1.9 3.4-6.9 5.1-11 3.7-9 9.3-17.3 18.1-26.8 3.3-3.5 3.6-4.2 2.5-6.4-.6-1.4-1.6-2.5-2.3-2.5-.7 0-1.8-1-2.4-2.3-.7-1.2-3.1-4.7-5.4-7.7-5.7-7.7-8.5-12.6-9.5-17.4-.5-2.3-1.2-5.3-1.6-6.9-.5-2.2-.3-2.7 1.3-2.7 1.1 0 3.2 1 4.6 2.2 6.3 5.6 8.5 7.5 13.2 11.3 2.8 2.2 7.6 5.8 10.8 7.9 5.5 3.7 5.8 3.8 7.2 2 .8-1 1.9-3.5 2.5-5.4.6-1.9 1.7-5.1 2.4-7 6.3-16.7 6.3-16.9 3.2-36-2.4-15.2-13-34-22.7-40.5-2.4-1.6-5.6-4-7.1-5.3-1.4-1.3-5.6-3.5-9.3-4.7l-6.7-2.4-2.5 2.9c-1.3 1.7-4.3 4.3-6.6 5.9-15.5 11.1-16.6 11.5-27.2 12.6-2.7.3-6.9.8-9.1 1.1-2.3.3-5.4.2-6.9-.2-2.2-.5-2.6-1.1-2.2-3 .4-2.1.2-2.2-1.1-1.2-1.1.9-1.3.9-.9.1.4-.6.1-1.8-.7-2.6-1.3-1.3-1.2-1.9.5-5.4 2.1-4.3 10.5-13.6 13.1-14.6 1.1-.4 1.5-1.2 1.2-2.2-.3-.8-.1-1.5.4-1.5.6 0 3.1-1.8 5.6-3.9 2.5-2.1 5-4.1 5.6-4.3.7-.2.4-1.7-.9-4.3-3.4-7.2-5.3-13.9-5.8-21-.6-7.4 1-18.8 2.7-19.3.6-.2 1-.8 1-1.3 0-1.1-3-.7-15 1.7-34.5 7.1-68.8 25.3-93 49.4-15.8 15.7-23.8 27-34.9 49.5-13.7 27.6-21.1 59.5-19.7 85 .6 11.7.8 13.4 3.2 26 7.9 41.2 31 82.1 60.4 106.6 31.5 26.4 72 42.3 113.6 44.6 12.9.7 18.6 0 17.7-2.3-.6-1.6-5.7-4.6-6.5-3.8-.3.2-1.1-.2-1.8-1.1-.7-.8-1.7-1.5-2.3-1.5-2.3 0-7.8-5.4-10.9-10.7-1.8-3.2-3.3-6-3.3-6.3 0-.3-.8-2.5-1.8-5-1.9-5.1-2.8-22.8-1.2-23.4.6-.2.7-.6.4-1-1-1.1-15.9-4.5-17.3-4-.8.3-2.7-.1-4.4-1-1.6-.8-5.1-2-7.8-2.7-3-.7-8.6-3.7-14.4-7.7-11.4-7.7-14.2-10.2-13.6-11.8.4-1.2-4.6-8.6-8.4-12.4-.9-.9-3.5-5.6-5.9-10.5-2.3-5-4.8-10.1-5.5-11.5-.6-1.4-1.8-2.5-2.6-2.5-1 0-1.6-1.2-1.8-3.5-.2-1.9-1.2-6.4-2.3-10-2.9-9.3-3.6-24.4-1.5-34.5 2.1-9.9 4-16.6 5.7-19.7.7-1.3 1.3-2.6 1.4-3 0-.4.8-1.7 1.8-2.8 1-1.2 1.5-2.6 1.1-3.2-.4-.7-.3-.8.4-.4s1.8-.7 2.9-2.8c.9-2 2.3-3.6 3-3.6.7 0 1.3-.9 1.3-2 0-1.7.5-2 3.3-1.6 1.7.2 4.5.9 6 1.5 3.5 1.4 4 1.4 3.2.1-.3-.5 0-.7.9-.4.8.3 1.3 1.1 1 1.9-.4.9.2 1.1 2 .8 1.4-.3 2.3-.9 2.1-1.3-.3-.5-.1-1.1.4-1.4.5-.4 1.3-.1 1.7.5.5.8.9.7 1.4-.2.5-.7 1.6-1.4 2.5-1.5 1.7-.2 4.1-2.9 4.5-4.9.1-.6.6-1.6 1.2-2.3.7-.8.7-1.2-.3-1.2-.9 0-1-.3-.2-1.1 1.2-1.2.6-7.9-.8-9.4-.6-.6-1.5-1-2.2-1-.7 0-1.1-.8-.9-1.8.2-1.2-.7-2.1-2.7-2.8-1.7-.6-2.8-1.5-2.5-2.1.4-.6-1.2-.7-4.2-.3-6.4.9-11.4 2.4-11.4 3.6 0 .5-.5.9-1 .9-1.9 0-4.5 3.6-4.6 6.5-.2 3.8-.8 6.2-1.7 7.1-.4.4-.1 1.4.6 2.2 1 1.3.9 1.5-.5.9-1.3-.4-1.5-.2-1.1 1 .4 1.1.3 1.4-.6.9-2.3-1.5-12.7 12.7-15.5 21.2-1 2.9-2.1 5.4-2.6 5.7-.5.3-.7 1.2-.4 1.9.3.7-.4 5.9-1.6 11.6-1.2 5.7-1.9 11.5-1.6 12.9.3 1.4.8 5.3 1.2 8.6.3 3.3 1 8.2 1.6 11 .5 2.7 1.2 5.9 1.4 7 .9 4.8 4.3 15.3 6.3 19.2 1.1 2.3 2.1 4.6 2.1 5.1 0 2.9 10.9 20 15.4 24.1 1.4 1.4 2.6 3 2.6 3.8 0 .7.6 1.3 1.3 1.3 1.5 0 5.7 4.1 5.7 5.6 0 .6 1.1 2.1 2.5 3.4 1.4 1.3 2.5 1.8 2.5 1.1 0-.6 1.4.2 3 1.9 1.7 1.7 3 3.5 3 4 0 1.7-3.5 1.6-7-.1-1.9-1-5.5-2.7-8-3.8-2.5-1-6.1-2.6-8.2-3.5-2-.9-4.1-1.6-4.6-1.6-1 0-13.2-8.8-14.3-10.3-.3-.4-3.6-4-7.3-7.8-6.2-6.6-14.6-19.6-14.6-22.8 0-.8-.8-2.4-1.8-3.5-4.7-5.3-9-26.2-8.6-41.6 0-2.5.2-10.1.3-17l.3-12.5-6.3.3c-3.5.2-6.8.7-7.4 1.2-1 .7-6.5 2.4-7.5 2.2-.3 0-2.3 1.5-4.5 3.3-3.9 3.5-7 3.8-10.2 1.3-1.6-1.3.6-5 2.6-4.3.9.3 1.1 0 .7-1-.3-.8 0-1.4.6-1.2.7.1 1.2-.3 1.3-.8 0-.6.4-1.6.9-2.3 1.5-2.5 15.8-12.4 23.9-16.7 14.2-7.4 16.7-9 16.7-10.2 0-.7 1.1-2.5 2.4-4 1.4-1.6 5.1-6 8.4-9.8 8.8-10.4 24.3-25.5 26.2-25.5.5 0 3-1.3 5.4-2.9 2.5-1.5 6.7-3.4 9.3-4 2.7-.7 7.3-1.9 10.4-2.7 3.4-.8 10.6-1.4 17.8-1.5 11.7 0 12.5.1 19.2 3.3 4.1 1.9 6.8 3.7 6.5 4.5-.3.6.3 2.2 1.3 3.5 2.8 3.5 7.1 12.8 7 15.2 0 1.2.3 3.3.7 4.8.4 2-.1 3.9-1.9 7.1-1.4 2.3-3.4 6.7-4.5 9.7-2.7 7.8-16.3 27.8-18.9 27.9-.7.1-1.3.5-1.3 1s-.2 1.6-.5 2.3c-.3.8 1.7 4.2 4.5 7.7 8 9.9 14 19.7 15 24.3.5 2.4 1.2 5.5 1.6 7 .6 2.5.4 2.8-2 2.8-1.5 0-3.1-.8-3.8-2-.7-1.1-1.8-2-2.3-2-.6 0-2.9-1.8-5-4.1-2.2-2.2-6.5-5.7-9.5-7.6-3-2-5.7-3.9-6-4.3-.3-.3-1.9-1.6-3.6-2.8l-3.1-2.1-2.1 2.7c-1.2 1.4-2.2 3.2-2.2 4 0 .7-.8 3.4-1.9 6-5 12.8-6.3 18.4-5.6 24.6 2.4 19.8 2.9 21.7 8.2 31.7C210 353.9 213 357.7 221 363c1.9 1.3 4.9 3.6 6.7 5.1 1.7 1.5 5.7 3.5 8.8 4.4l5.7 1.6 5.1-4.6c2.9-2.6 6.7-6 8.5-7.6 1.8-1.6 3.9-2.9 4.7-2.9.8 0 1.5-.4 1.5-.8 0-1.2 4.1-3.3 7.6-3.8 1.6-.2 4.3-.6 5.9-.9 1.7-.3 5.3-.8 8-1.1 2.8-.2 5.8-.7 6.9-.9 1-.2 2.9 0 4.1.5 1.9.7 2.3 1.5 1.9 3.5-.4 2.4.7 3.2 3.9 2.6 3.2-.6-5.8 13.6-12 18.7-2.3 1.9-3.9 4-3.6 4.5.3.6.1.7-.6.3-1.3-.8-5.9 2.4-5.4 3.9.1.6-1.2 2-3.1 3.3l-3.4 2.3 2.8 6.2c1.5 3.4 3.4 9 4 12.5 1.6 7.7.9 19.7-1.3 24.2l-1.7 3.3 5.3-.7c7.8-1 28.1-6.4 37.7-10.1 25.8-9.8 49.4-25.1 68.8-44.5 4-4 7.2-7.4 7.2-7.7 0-.5 12.1-17.5 16.7-23.4 1.5-2 3-3.5 3.3-3.4.3.2.7-.8.8-2.3.1-1.5.7-2.8 1.2-3 .6-.2 1-.8 1-1.4 0-.5 2.5-7.3 5.6-15.1 5.5-14 10.4-30.6 12.3-42.2 1-5.9 1.3-8.8 2.6-21 1.3-12.3-3.9-46.9-9.3-62-11.1-31.5-31.4-62.5-52.5-80.3-21.5-18.1-44.4-30.6-71-38.6-18-5.5-46.7-9.4-57.7-7.9zm-5.5 110.4c1.1 1.7.2 1.8-1.9.3-1.7-1.2-1.7-1.4-.4-1.4.9 0 2 .5 2.3 1.1zm71.3 117.5c-.4.3-1.2-.5-1.8-1.8-1.2-2.2-1.2-2.2.6-.6 1 1 1.5 2 1.2 2.4zm-41.7 27.2c-.7.2-1.8-.1-2.3-.6-.8-.8-.4-.9 1.3-.5 1.3.4 1.8.8 1 1.1zM173 22.5c-1.1 1.3-1 1.4.4.9.9-.3 1.6-1 1.6-1.5 0-1.3-.6-1.1-2 .6zM192.5 23c.3.5.8 1 1.1 1 .2 0 .4-.5.4-1 0-.6-.5-1-1.1-1-.5 0-.7.4-.4 1zM9.1 252.7c0 .5.4 1.7.9 2.8.8 1.8.9 1.7.9-.8.1-1.5-.3-2.7-.9-2.7-.5 0-1 .3-.9.7zM10.3 261c-.1 1.7.2 3 .7 3 .6 0 1-1.4 1-3 0-3.9-1.4-3.9-1.7 0zM436.3 416.5c0 1.4.3 2.5.8 2.5s.9-.9.9-1.9c0-1.1-.4-2.2-.9-2.5-.5-.3-.8.6-.8 1.9z"/></svg>