<svg width="800" height="600" xmlns="http://www.w3.org/2000/svg" style="vector-effect: non-scaling-stroke;" stroke="null">
 <!-- Created with Method Draw - http://github.com/duopixel/Method-Draw/ -->

 <g stroke="null">
  <title stroke="null">background</title>
  <rect stroke="null" fill="#fff" id="canvas_background" height="602" width="802" y="-1" x="-1"/>
  <g style="vector-effect: non-scaling-stroke;" stroke="null" display="none" overflow="visible" y="0" x="0" height="100%" width="100%" id="canvasGrid">
   <rect stroke="null" fill="url(#gridpattern)" stroke-width="0" y="0" x="0" height="100%" width="100%"/>
  </g>
 </g>
 <g stroke="null">
  <title stroke="null">Layer 1</title>
  <g stroke="null" id="svg_47">
   <polygon stroke="null" id="svg_30" fill="#FFFFFF" points="147.91525268554688,439.05395436286926 147.91525268554688,160.955504655838 400.0000305175781,21.250964403152466 652.0847778320312,160.955504655838 652.0847778320312,439.05395436286926 400.0000305175781,578.7596733570099 "/>
   <path stroke="null" id="svg_31" fill="#E81241" d="m400.00001,43.15529l232.9286,129.09238l0,255.50353l-232.9286,129.09355l-232.9286,-129.09238l0,-255.5047l232.9286,-129.09238m0,-43.80983l-271.24091,150.32728l0,300.65456l271.24091,150.32728l271.24091,-150.32728l0,-300.65456l-271.24091,-150.32728z"/>
   <g stroke="null" transform="matrix(1.1744318692886926,0,0,1.1744318692886926,-2447.1684871942302,-2265.6690098333197) " id="svg_32"/>
   <g stroke="null" transform="matrix(1.1744318692886926,0,0,1.1744318692886926,-2447.1684871942302,-2265.6690098333197) " id="svg_33"/>
   <g stroke="null" transform="matrix(1.1744318692886926,0,0,1.1744318692886926,-2447.1684871942302,-2265.6690098333197) " id="svg_34"/>
   <g stroke="null" transform="matrix(1.1744318692886926,0,0,1.1744318692886926,-2447.1684871942302,-2265.6690098333197) " id="svg_35"/>
   <g stroke="null" transform="matrix(1.1744318692886926,0,0,1.1744318692886926,-2447.1684871942302,-2265.6690098333197) " id="svg_36"/>
   <g stroke="null" transform="matrix(1.1744318692886926,0,0,1.1744318692886926,-2447.1684871942302,-2265.6690098333197) " id="svg_37"/>
   <g stroke="null" transform="matrix(1.1744318692886926,0,0,1.1744318692886926,-2447.1684871942302,-2265.6690098333197) " id="svg_38"/>
   <g stroke="null" transform="matrix(1.1744318692886926,0,0,1.1744318692886926,-2447.1684871942302,-2265.6690098333197) " id="svg_39"/>
   <g stroke="null" transform="matrix(1.1744318692886926,0,0,1.1744318692886926,-2447.1684871942302,-2265.6690098333197) " id="svg_40"/>
   <g stroke="null" transform="matrix(1.1744318692886926,0,0,1.1744318692886926,-2447.1684871942302,-2265.6690098333197) " id="svg_41"/>
   <g stroke="null" transform="matrix(1.1744318692886926,0,0,1.1744318692886926,-2447.1684871942302,-2265.6690098333197) " id="svg_42"/>
   <g stroke="null" transform="matrix(1.1744318692886926,0,0,1.1744318692886926,-2447.1684871942302,-2265.6690098333197) " id="svg_43"/>
   <g stroke="null" transform="matrix(1.1744318692886926,0,0,1.1744318692886926,-2447.1684871942302,-2265.6690098333197) " id="svg_44"/>
   <g stroke="null" transform="matrix(1.1744318692886926,0,0,1.1744318692886926,-2447.1684871942302,-2265.6690098333197) " id="svg_45"/>
   <g stroke="null" transform="matrix(1.1744318692886926,0,0,1.1744318692886926,-2447.1684871942302,-2265.6690098333197) " id="svg_46"/>
  </g>
  <g stroke="null" id="svg_25">
   <g stroke="null" transform="matrix(0.8452665717816409,0,0,0.830212695281098,-1531.9603517302512,-1397.8896124222274) " id="svg_52">
    <g stroke="null" id="svg_51">
     <g stroke="null" id="svg_50">
      <path stroke="null" id="svg_48" d="m2519.09082,2009.53727l-75.08,-75.08l0,-86.73c0,-15.682 -12.708,-28.391 -28.413,-28.391c-15.669,0 -28.377,12.709 -28.377,28.391l0,29.941l-55.903,-55.905c-27.639,-27.624 -75.694,-27.575 -103.27,0.05l-187.728,187.724c-11.082,11.104 -11.082,29.071 0,40.158c11.087,11.101 29.089,11.101 40.172,0l187.71,-187.729c6.115,-6.083 16.893,-6.083 22.976,-0.018l187.742,187.747c5.567,5.551 12.825,8.312 20.081,8.312c7.271,0 14.541,-2.764 20.091,-8.312c11.086,-11.086 11.086,-29.053 -0.001,-40.158z"/>
      <path stroke="null" id="svg_49" d="m2289.56882,1915.85927c-5.454,-5.451 -14.285,-5.451 -19.723,0l-165.126,165.077c-2.607,2.606 -4.085,6.164 -4.085,9.877l0,120.401c0,28.253 22.908,51.16 51.16,51.16l81.754,0l0,-126.61l92.299,0l0,126.61l81.755,0c28.251,0 51.159,-22.907 51.159,-51.159l0,-120.402c0,-3.713 -1.465,-7.271 -4.085,-9.877l-165.108,-165.077z"/>
     </g>
    </g>
   </g>
   <g stroke="null" transform="matrix(0.8452665717816409,0,0,0.830212695281098,-1531.9603517302512,-1397.8896124222274) " id="svg_53"/>
   <g stroke="null" transform="matrix(0.8452665717816409,0,0,0.830212695281098,-1531.9603517302512,-1397.8896124222274) " id="svg_54"/>
   <g stroke="null" transform="matrix(0.8452665717816409,0,0,0.830212695281098,-1531.9603517302512,-1397.8896124222274) " id="svg_55"/>
   <g stroke="null" transform="matrix(0.8452665717816409,0,0,0.830212695281098,-1531.9603517302512,-1397.8896124222274) " id="svg_56"/>
   <g stroke="null" transform="matrix(0.8452665717816409,0,0,0.830212695281098,-1531.9603517302512,-1397.8896124222274) " id="svg_57"/>
   <g stroke="null" transform="matrix(0.8452665717816409,0,0,0.830212695281098,-1531.9603517302512,-1397.8896124222274) " id="svg_58"/>
   <g stroke="null" transform="matrix(0.8452665717816409,0,0,0.830212695281098,-1531.9603517302512,-1397.8896124222274) " id="svg_59"/>
   <g stroke="null" transform="matrix(0.8452665717816409,0,0,0.830212695281098,-1531.9603517302512,-1397.8896124222274) " id="svg_60"/>
   <g stroke="null" transform="matrix(0.8452665717816409,0,0,0.830212695281098,-1531.9603517302512,-1397.8896124222274) " id="svg_61"/>
   <g stroke="null" transform="matrix(0.8452665717816409,0,0,0.830212695281098,-1531.9603517302512,-1397.8896124222274) " id="svg_62"/>
   <g stroke="null" transform="matrix(0.8452665717816409,0,0,0.830212695281098,-1531.9603517302512,-1397.8896124222274) " id="svg_63"/>
   <g stroke="null" transform="matrix(0.8452665717816409,0,0,0.830212695281098,-1531.9603517302512,-1397.8896124222274) " id="svg_64"/>
   <g stroke="null" transform="matrix(0.8452665717816409,0,0,0.830212695281098,-1531.9603517302512,-1397.8896124222274) " id="svg_65"/>
   <g stroke="null" transform="matrix(0.8452665717816409,0,0,0.830212695281098,-1531.9603517302512,-1397.8896124222274) " id="svg_66"/>
   <g stroke="null" transform="matrix(0.8452665717816409,0,0,0.830212695281098,-1531.9603517302512,-1397.8896124222274) " id="svg_67"/>
  </g>
 </g>
</svg>